HIERARCHY
ROOT Hips
{
	OFFSET	0.00	0.00	0.00
	CHANNELS 6 Xposition Yposition Zposition Zrotation Xrotation Yrotation
	JOINT Spine
	{
		OFFSET	 0.00	0.01	 0.00
		CHANNELS 3 Zrotation Xrotation Yrotation
		JOINT Spine1
		{
			OFFSET	 0.00	 2.45913012437421	 0.00
			CHANNELS 3 Zrotation Xrotation Yrotation
            JOINT Neck
            {
                OFFSET	 0.00	 2.48462964506057	 0.00
                CHANNELS 3 Zrotation Xrotation Yrotation
                JOINT Head
                {
                    OFFSET	 0.00	 0.927524780924562	 0.00
                    CHANNELS 3 Zrotation Xrotation Yrotation
                    End Site 
                    {
                        OFFSET	 0.00	 1.14999962169752	 0.00
                    }
                }
            }
			JOINT LeftShoulder
			{
				OFFSET	 0.00	 2.48462964506057	 0.00
				CHANNELS 3 Zrotation Xrotation Yrotation
				JOINT LeftUpArm
				{
					OFFSET	 0.00	 1.24881979654096	 0.00
					CHANNELS 3 Zrotation Xrotation Yrotation
					JOINT LeftForeArm
					{
						OFFSET	 0.00	2.59758046908119	 0.00
						CHANNELS 3 Zrotation Xrotation Yrotation
						JOINT LeftHand
						{
							OFFSET	 0.00	2.45542024364365	 0.00
							CHANNELS 3 Zrotation Xrotation Yrotation
							JOINT LeftHandThumb 
							{
								OFFSET	 0.00	0.00	 0.00
								CHANNELS 3 Zrotation Xrotation Yrotation
								End Site
								{
									OFFSET	 0.00	0.00	1.00000003353624
								}
							}
							JOINT L_Wrist_End 
							{
								OFFSET	 0.00	0.99999967115358	 0.00
								CHANNELS 3 Zrotation Xrotation Yrotation
								End Site 
								{
									OFFSET	 0.00	 0.00	 0.00
								}
							}
						}
					}
				}
			}
			JOINT RightShoulder
			{
				OFFSET	 0.00	 2.48462964506057	 0.00
				CHANNELS 3 Zrotation Xrotation Yrotation
				JOINT RightUpArm
				{
					OFFSET	 0.00	 1.24881979654096	 0.00
					CHANNELS 3 Zrotation Xrotation Yrotation
					JOINT RightForeArm
					{
						OFFSET	 0.00	2.59758046908119	 0.00
						CHANNELS 3 Zrotation Xrotation Yrotation
						JOINT RightHand
						{
							OFFSET	 0.00	2.45542024364365	 0.00
							CHANNELS 3 Zrotation Xrotation Yrotation
							JOINT RightHandThumb 
							{
								OFFSET	 0.00	0.00	 0.00
								CHANNELS 3 Zrotation Xrotation Yrotation
								End Site
								{
									OFFSET	 0.00	0.00	1.00000003353624
								}
							}
							JOINT R_Wrist_End 
							{
								OFFSET	 0.00	0.99999967115358	 0.00
								CHANNELS 3 Zrotation Xrotation Yrotation
								End Site 
								{
									OFFSET	 0.00	 0.00	 0.00
								}
							}
						}
					}
				}
			}
		}
	}
	JOINT LeftUpLeg
	{
		OFFSET	 1.2719394002717	 0.00	 0.00
		CHANNELS 3 Zrotation Xrotation Yrotation
		JOINT LeftLowLeg
		{
			OFFSET	 0.00	-4.3429100912261	 0.00
			CHANNELS 3 Zrotation Xrotation Yrotation
			JOINT LeftFoot
			{
				OFFSET	 0.00	-4.48767017425826	 0.00
				CHANNELS 3 Zrotation Xrotation Yrotation
				JOINT LeftToeBase
                {
                    OFFSET	 0.00	0.00	 1.51507020887566
                    CHANNELS 3 Zrotation Xrotation Yrotation
                    End Site 
                    {
                        OFFSET	 0.00	0.00	 0.75000010571191
                    }
                }
			}
		}
	}
	JOINT RightUpLeg
	{
		OFFSET	 -1.2719393604653	 0.00	 0.00
		CHANNELS 3 Zrotation Xrotation Yrotation
		JOINT RightLowLeg
		{
			OFFSET	 0.00	-4.3429100912261	 0.00
			CHANNELS 3 Zrotation Xrotation Yrotation
			JOINT RightFoot
			{
				OFFSET	 0.00	-4.48767017425826	 0.00
				CHANNELS 3 Zrotation Xrotation Yrotation
				JOINT RightToeBase
                {
                    OFFSET	 0.00	0.00	 1.51507020887566
                    CHANNELS 3 Zrotation Xrotation Yrotation
                    End Site 
                    {
                        OFFSET	 0.00	0.00	 0.749999965609858
                    }
                }   
			}
		}
	}
}
MOTION 
Frames:	15 
Frame Time: 0.02 
 -2.8724700927734377 0.6450019836425781 9.337139892578126 -160.791 70.9305 172.287 6.85218 -29.8266 -1.42862 -3.96215 6.59157 0.144621 10.6689 33.7285 -1.96167 -57.0252 -74.2273 -42.8136 -120.9617 2.2875 12.3866 -37.7249 17.9602 -358.489 0.0 27.8414 0.0 12.7689 -6.70629 21.1409 0.0 0.0 0.0 0.0 0.0 0.0 122.1231 -2.28109 -5.54364 38.978 12.1316 -374.479 0.0 27.2996 0.0 -7.72812 -1.28106 -1.17749 0.0 0.0 0.0 0.0 0.0 0.0 1.83957 -15.957 -27.3596 0.0 6.79473 0.0 -0.736225 -4.3211 20.3736 0.0 -11.37587 0.0 8.26606 -13.0318 391.922 0.0 2.74141 0.0 4.14201 1.7244997 -29.4205 0.0 -17.91689 0.0 
  -2.8769601440429686 0.644207992553711 9.336920166015625 -160.763 70.936 172.368 6.81519 -29.8985 -1.43488 -4.02069 6.5881 0.178725 10.9385 33.7393 -2.21584 -56.6019 -74.2033 -42.5057 -121.0148 2.26875 12.4901 -37.7241 18.1089 -358.309 0.0 27.6265 0.0 12.6918 -6.70342 21.3033 0.0 0.0 0.0 0.0 0.0 0.0 122.132095 -2.29558 -5.5711 39.1425 12.0342 -374.662 0.0 27.2445 0.0 -7.45187 -1.17425 -1.64731 0.0 0.0 0.0 0.0 0.0 0.0 1.84185 -15.9794 -27.4338 0.0 6.8115 0.0 -0.73605 -4.3038006 20.3535 0.0 -11.4059 0.0 8.2587 -12.9993 391.875 0.0 2.68432 0.0 4.15748 1.7194004 -29.4612 0.0 -17.92632 0.0 
  -2.8812600708007814 0.6437409973144531 9.336669921875 -160.74 70.9363 172.42 6.83092 -29.9299 -1.36262 -4.11621 6.55187 0.245695 11.2114 33.7376 -2.47419 -56.313 -74.1987 -42.3656 -121.0288 2.1783 12.4627 -37.8023 18.1539 -357.938 0.0 27.239 0.0 12.3366 -6.61345 21.4387 0.0 0.0 0.0 0.0 0.0 0.0 122.1891 -2.35565 -5.58737 39.2879 11.7663 -374.837 0.0 27.1479 0.0 -7.21952 -1.13255 -1.8405 0.0 0.0 0.0 0.0 0.0 0.0 1.84936 -16.0098 -27.4514 0.0 6.84511 0.0 -0.748765 -4.3122005 20.3029 0.0 -11.40248 0.0 8.2606 -12.9777 391.843 0.0 2.63017 0.0 4.13568 1.7425003 -29.5004 0.0 -17.94509 0.0 
  -2.885740051269531 0.6436229705810547 9.336290283203125 -160.729 70.948 172.436 6.85627 -29.9255 -1.26194 -4.1927 6.51133 0.335334 11.424 33.7676 -2.64579 -56.0471 -74.2092 -42.2509 -121.0067 1.97208 12.1937 -38.0048 18.089 -357.327 0.0 26.6588 0.0 11.8886 -6.57053 21.727 0.0 0.0 0.0 0.0 0.0 0.0 122.25 -2.43395 -5.58272 39.4558 11.3734 -375.035 0.0 26.9592 0.0 -7.0264 -1.19303 -1.87275 0.0 0.0 0.0 0.0 0.0 0.0 1.86775 -16.0159 -27.4607 0.0 6.86397 0.0 -0.752757 -4.3213005 20.2964 0.0 -11.39912 0.0 8.27827 -12.9625 391.797 0.0 2.61772 0.0 4.14201 1.7313004 -29.465 0.0 -17.90805 0.0 
  -2.8899600219726564 0.6446160125732422 9.335780029296876 -160.769 70.9413 172.456 6.92343 -29.8665 -1.08631 -4.26862 6.37108 0.458732 11.6532 33.8231 -2.88787 -56.1221 -74.2102 -42.4662 -120.9737 1.77383 11.9785 -38.2299 17.8531 -356.889 0.0 26.033 0.0 11.2012 -6.48391 22.4373 0.0 0.0 0.0 0.0 0.0 0.0 122.3267 -2.53832 -5.63523 39.6238 10.9002 -375.061 0.0 26.5621 0.0 -6.71096 -1.22886 -1.96974 0.0 0.0 0.0 0.0 0.0 0.0 1.87855 -16.0418 -27.4711 0.0 6.88985 0.0 -0.774955 -4.3477993 20.3239 0.0 -11.367929 0.0 8.30053 -12.9975 391.767 0.0 2.64435 0.0 4.15185 1.7265997 -29.3973 0.0 -17.93785 0.0 
  -2.893160095214844 0.6434770202636719 9.33531982421875 -160.726 70.8457 172.507 6.95936 -29.9564 -1.00678 -4.29758 6.31302 0.521934 11.7772 33.8633 -3.04739 -56.3312 -74.2025 -42.8125 -120.9411 1.54296 11.8239 -38.4902 17.5271 -356.791 0.0 25.3592 0.0 10.353 -6.46543 23.3327 0.0 0.0 0.0 0.0 0.0 0.0 122.3466 -2.60148 -5.67599 39.8311 10.3354 -375.189 0.0 26.0213 0.0 -6.43273 -1.31753 -1.78724 0.0 0.0 0.0 0.0 0.0 0.0 1.88847 -16.1712 -27.5911 0.0 6.94223 0.0 -0.813095 -4.3813 20.3347 0.0 -11.38806 0.0 8.31983 -13.0756 391.618 0.0 2.62345 0.0 4.13775 1.7250004 -29.3158 0.0 -17.93621 0.0 
  -2.899320068359375 0.6379010009765625 9.335230102539063 -160.942 70.9191 172.538 6.92537 -29.9733 -0.851448 -4.24079 6.40756 0.769009 11.8774 33.8673 -3.18605 -56.5214 -74.1962 -43.1597 -120.924805 1.35837 11.6499 -38.7305 17.0226 -356.774 0.0 24.6285 0.0 9.6656 -6.51662 23.7584 0.0 0.0 0.0 0.0 0.0 0.0 122.4294 -2.71586 -5.67755 39.9841 9.73647 -375.258 0.0 25.378 0.0 -6.11108 -1.5528 -1.5366 0.0 0.0 0.0 0.0 0.0 0.0 1.92993 -16.0017 -27.3697 0.0 6.83866 0.0 -0.820743 -4.3747997 20.3147 0.0 -11.39524 0.0 8.33138 -12.9943 391.793 0.0 2.64079 0.0 4.09657 1.7426004 -29.3371 0.0 -17.93726 0.0 
  -2.903169860839844 0.6364680099487304 9.334240112304688 -161.011 70.9073 172.546 6.97473 -29.9965 -0.706153 -4.23749 6.43163 0.904554 12.2656 33.6869 -3.76938 -56.4477 -74.0805 -42.8821 -120.8763 1.18377 11.594 -38.9788 16.4444 -357.051 0.0 23.8838 0.0 8.97955 -7.00738 24.0425 0.0 0.0 0.0 0.0 0.0 0.0 122.472 -2.7763 -5.74613 40.219 9.10761 -375.182 0.0 24.5198 0.0 -5.86943 -1.74877 -1.29894 0.0 0.0 0.0 0.0 0.0 0.0 1.94551 -16.0037 -27.3722 0.0 6.85273 0.0 -0.836949 -4.423401 20.3746 0.0 -11.359591 0.0 8.35243 -13.0033 391.85 0.0 2.64152 0.0 4.07211 1.7343998 -29.3378 0.0 -17.92814 0.0 
  -2.9067498779296876 0.6361869812011719 9.3335302734375 -161.092 70.8593 172.556 7.03137 -30.0168 -0.587899 -4.20311 6.48332 1.00317 11.9891 33.7496 -3.45806 -57.0128 -74.1484 -43.6845 -120.8862 0.94636 11.4287 -39.1816 15.7489 -357.365 0.0 22.907 0.0 8.37087 -7.21734 23.2287 0.0 0.0 0.0 0.0 0.0 0.0 122.5092 -2.86966 -5.70467 40.4635 8.45671 -375.117 0.0 23.5071 0.0 -5.50592 -1.76061 -1.43194 0.0 0.0 0.0 0.0 0.0 0.0 1.95901 -16.0517 -27.3579 0.0 6.87422 0.0 -0.844636 -4.4633007 20.4342 0.0 -11.38141 0.0 8.3782 -13.0624 391.899 0.0 2.65627 0.0 4.05548 1.7339001 -29.3165 0.0 -17.93106 0.0 
  -2.9104598999023437 0.6354499816894531 9.332689819335938 -161.207 70.8144 172.563 7.11932 -30.054 -0.427454 -4.22713 6.54221 1.12007 12.2894 33.6054 -3.85965 -57.1759 -74.1407 -43.6425 -120.835 0.78668 11.3361 -39.4051 14.9226 -357.726 0.0 21.8359 0.0 8.11896 -7.47593 22.498 0.0 0.0 0.0 0.0 0.0 0.0 122.568405 -2.94957 -5.69591 40.729 7.792 -375.032 0.0 22.272 0.0 -5.09872 -1.74834 -1.06026 0.0 0.0 0.0 0.0 0.0 0.0 1.97448 -16.082 -27.3037 0.0 6.88375 0.0 -0.831528 -4.503599 20.5065 0.0 -11.36275 0.0 8.40354 -13.1253 391.932 0.0 2.68848 0.0 4.05853 1.7159996 -29.2234 0.0 -17.92453 0.0 
  -2.914110107421875 0.6335309982299805 9.33197998046875 -161.267 70.7979 172.597 7.12367 -30.0803 -0.391531 -4.15102 6.6554 1.18079 11.8594 33.7573 -3.30269 -57.9084 -74.278 -44.6935 -120.8289 0.560056 11.1601 -39.622 13.9492 -357.966 0.0 20.788 0.0 8.32591 -7.83908 21.221 0.0 0.0 0.0 0.0 0.0 0.0 122.617004 -3.05155 -5.67885 40.9377 7.17904 -375.001 0.0 21.0094 0.0 -4.58496 -2.10744 -0.408006 0.0 0.0 0.0 0.0 0.0 0.0 1.98326 -16.0885 -27.3388 0.0 6.88982 0.0 -0.809437 -4.5186996 20.5832 0.0 -11.38896 0.0 8.42099 -13.1407 391.99 0.0 2.69984 0.0 4.04431 1.7006998 -29.2493 0.0 -17.92281 0.0 
  -2.9181698608398436 0.6313790130615234 9.33125 -161.263 70.8049 172.627 7.06601 -30.0962 -0.443451 -3.99173 6.76546 1.20118 11.7173 33.7473 -3.1934 -58.4637 -74.3075 -45.2961 -120.8126 0.329338 11.0891 -39.8742 13.0364 -358.597 0.0 19.4783 0.0 8.18459 -8.04575 20.5617 0.0 0.0 0.0 0.0 0.0 0.0 122.6223 -3.12043 -5.64913 41.1709 6.52576 -374.625 0.0 19.6998 0.0 -3.71532 -2.82681 -0.00776061 0.0 0.0 0.0 0.0 0.0 0.0 1.99884 -16.0838 -27.3822 0.0 6.90297 0.0 -0.84038 -4.5468006 20.5856 0.0 -11.37189 0.0 8.44212 -13.1217 391.973 0.0 2.69314 0.0 3.98202 1.7114 -29.2852 0.0 -17.90842 0.0 
  -2.9225799560546877 0.6278860092163085 9.330919799804688 -161.316 70.8771 172.658 7.00919 -30.0477 -0.481977 -3.87128 6.87228 1.22719 11.6026 33.7864 -3.03199 -58.9064 -74.3883 -45.7316 -120.8141 0.0570374 10.9948 -40.0634 11.9941 -358.924 0.0 18.2654 0.0 8.39638 -8.50913 20.1662 0.0 0.0 0.0 0.0 0.0 0.0 122.6672 -3.21734 -5.64417 41.3648 5.87197 -374.717 0.0 18.1771 0.0 -3.3663 -2.88352 0.216015 0.0 0.0 0.0 0.0 0.0 0.0 2.01311 -15.9827 -27.3714 0.0 6.88233 0.0 -0.858485 -4.5594006 20.6029 0.0 -11.35919 0.0 8.4592 -13.0408 392.133 0.0 2.71201 0.0 3.95993 1.6942997 -29.4355 0.0 -17.90659 0.0 
  -2.923900146484375 0.6300439834594727 9.330280151367187 -161.133 70.8165 172.639 7.10281 -30.041 -0.483262 -3.89427 6.87843 1.12414 12.0533 33.5734 -3.63707 -58.9278 -74.3496 -45.3254 -120.7616 -0.0879229 11.0009 -40.2798 10.9336 -359.613 0.0 16.8746 0.0 8.52704 -8.98973 20.8455 0.0 0.0 0.0 0.0 0.0 0.0 122.743195 -3.2756 -5.61743 41.5415 5.13917 -374.538 0.0 16.7485 0.0 -2.84457 -3.24223 0.383261 0.0 0.0 0.0 0.0 0.0 0.0 2.01763 -16.119 -27.5759 0.0 6.97294 0.0 -0.871164 -4.605301 20.6391 0.0 -11.35464 0.0 8.49074 -13.0916 392.008 0.0 2.681 0.0 3.9383 1.7020998 -29.468 0.0 -17.9021 0.0 
  -2.9279998779296874 0.6266650009155273 9.329739990234375 -161.22 70.7598 172.683 7.08111 -30.1105 -0.491443 -3.77755 7.01602 1.16629 11.4591 33.8103 -2.79231 -59.646 -74.5536 -46.3536 -120.7044 -0.347278 10.9893 -40.5143 10.0343 -360.436 0.0 15.3279 0.0 8.3124 -9.45776 20.9687 0.0 0.0 0.0 0.0 0.0 0.0 122.6922 -3.4127 -5.54222 41.8605 4.54003 -374.004 0.0 15.1551 0.0 -1.74718 -4.64008 -6.65332 0.0 0.0 0.0 0.0 0.0 0.0 2.05425 -16.124 -27.479 0.0 6.90439 0.0 -0.866061 -4.602501 20.6156 0.0 -11.37483 0.0 8.51087 -13.1281 392.01 0.0 2.66804 0.0 3.8707 1.7279997 -29.4518 0.0 -17.90251 0.0 
